<svg xmlns="http://www.w3.org/2000/svg" viewBox="0 0 256 256">
  <defs>
    <linearGradient id="iceGrad" x1="0%" y1="0%" x2="100%" y2="100%">
      <stop offset="0%" style="stop-color:#60A5FA;stop-opacity:1" />
      <stop offset="100%" style="stop-color:#3B82F6;stop-opacity:1" />
    </linearGradient>
  </defs>
  <rect width="256" height="256" fill="#1e293b"/>
  <path d="M128 40 L180 80 L180 140 L128 100 L76 140 L76 80 Z" fill="url(#iceGrad)" opacity="0.3"/>
  <path d="M128 60 L90 60 L90 80 L110 80 L110 160 L90 160 L90 180 L166 180 L166 160 L146 160 L146 80 L166 80 L166 60 Z" fill="url(#iceGrad)"/>
  <path d="M128 100 L148 120 L128 140 L108 120 Z" fill="#60A5FA" opacity="0.6"/>
  <path d="M100 90 L110 100 L100 110 Z" fill="#93C5FD" opacity="0.8"/>
  <path d="M156 90 L146 100 L156 110 Z" fill="#93C5FD" opacity="0.8"/>
</svg>